#!OML:ASF I:\Actors\actors\Patient Classification 1\Patient 1\Session 1\Subject1.ASF
:FULLY-SPECIFIED
:DEGREES
1756
root 0.572455 17.5131 9.44256 10.861 -0.448135 -9.1494
lowerback 1.86349 1.83895 7.41492
upperback -6.86506 3.05909 1.80136
thorax -8.0177 1.09623 -2.49794
lowerneck -13.6046 -7.4269 -5.71218
upperneck 24.4118 -11.3765 8.25479
head 10.9416 -4.80628 2.34007
rclavicle -2.92213e-014 -1.47101e-014
rhumerus -28.4335 31.9706 -84.2819
rradius 101.238
rwrist 8.6058
rhand -13.4425 -30.7676
rfingers 7.12502
rthumb 12.6667 -60.3635
lclavicle -2.92213e-014 -1.47101e-014
lhumerus -48.0549 -4.9099 93.6407
lradius 78.0647
lwrist 1.92021
lhand -32.2034 -36.1918
lfingers 7.12502
lthumb -5.44514 -6.28178
rfemur -4.10352 24.7792 25.6827
rtibia 1.71127
rfoot -14.3584 -27.8334
rtoes 4.83453
lfemur 6.65722 -52.3385 -12.8748
ltibia -5.06315
lfoot -38.0379 57.6374
ltoes 20.5878
1757
root 0.569354 17.5097 9.44049 10.8933 -0.268714 -9.12637
lowerback 1.84306 1.793 7.31878
upperback -6.87624 2.99038 1.79925
thorax -8.0275 1.06812 -2.44112
lowerneck -13.6216 -7.38734 -5.61305
upperneck 24.2439 -11.2827 8.10366
head 10.8577 -4.77585 2.28284
rclavicle 6.8208e-015 1.68967e-014
rhumerus -31.9376 32.1845 -85.5936
rradius 102.95
rwrist 9.30896
rhand -14.4505 -27.5931
rfingers 7.12502
rthumb 11.6947 -57.2467
lclavicle 6.8208e-015 1.68967e-014
lhumerus -48.8168 -4.81295 93.5547
lradius 78.0113
lwrist 2.26952
lhand -31.9686 -36.0218
lfingers 7.12502
lthumb -5.21844 -6.10607
rfemur -4.18847 24.8211 25.6824
rtibia 1.82788
rfoot -14.467 -28.0058
rtoes 5.10347
lfemur 6.32956 -51.9859 -12.5881
ltibia -5.07677
lfoot -37.014 57.4042
ltoes 20.0436
1758
root 0.584517 17.5248 9.48774 9.90688 -1.03981 -9.24546
lowerback 2.23219 2.019 7.5013
upperback -6.42492 3.3123 1.78756
thorax -7.72308 1.23431 -2.58815
lowerneck -13.7708 -7.39743 -5.60771
upperneck 24.2688 -11.2743 8.02963
head 10.8901 -4.77437 2.25164
rclavicle 2.2326e-014 -9.34288e-015
rhumerus -35.5686 32.2593 -86.9793
rradius 104.322
rwrist 10.6888
rhand -15.6506 -25.9247
rfingers 7.12502
rthumb 10.5373 -55.6405
lclavicle 2.2326e-014 -9.34288e-015
lhumerus -49.5846 -4.73697 93.475
lradius 77.8792
lwrist 2.6975
lhand -31.6987 -36.0271
lfingers 7.12502
lthumb -4.95785 -6.10511
rfemur -2.75084 24.6707 26.3128
rtibia 1.67069
rfoot -14.1784 -27.2626
rtoes 4.46018
lfemur 10.298 -53.9787 -15.9532
ltibia -5.28369
lfoot -42.0453 58.8309
ltoes 22.3671
1759
root 0.590518 17.5235 9.4929 9.8128 -0.643983 -9.19476
lowerback 2.21849 1.9035 7.58182
upperback -6.3921 3.15618 1.74566
thorax -7.68932 1.15306 -2.66366
lowerneck -13.8534 -7.39944 -5.61563
upperneck 24.2538 -11.2788 8.05996
head 10.9037 -4.77126 2.26018
rclavicle 6.06293e-015 -2.127e-014
rhumerus -39.0264 31.6342 -88.0444
rradius 105.222
rwrist 13.7728
rhand -14.6711 -24.1977
rfingers 7.12502
rthumb 11.482 -53.8633
lclavicle 6.06293e-015 -2.127e-014
lhumerus -50.3344 -4.63852 93.359
lradius 77.6636
lwrist 3.07273
lhand -31.5602 -35.7211
lfingers 7.12502
lthumb -4.82405 -5.79599
rfemur -2.53672 24.672 26.3502
rtibia 1.58495
rfoot -14.3754 -27.6109
rtoes 4.91548
lfemur 10.1053 -53.8063 -15.8224
ltibia -5.25758
lfoot -40.713 58.6821
ltoes 21.3779
1760
root 0.595751 17.5142 9.48794 10.0482 0.111062 -9.10128
lowerback 1.9807 1.69025 7.68861
upperback -6.50345 2.85651 1.68992
thorax -7.69596 0.994757 -2.75092
lowerneck -13.9145 -7.39897 -5.64253
upperneck 24.2139 -11.2893 8.14708
head 10.9096 -4.76744 2.2919
rclavicle 3.75206e-015 -1.92821e-014
rhumerus -42.9654 31.4505 -89.8086
rradius 105.937
rwrist 14.5994
rhand -16.1385 -23.6641
rfingers 7.12502
rthumb 10.0665 -53.4033
lclavicle 3.75206e-015 -1.92821e-014
lhumerus -51.062 -4.46859 93.1966
lradius 77.2853
lwrist 3.53057
lhand -31.2289 -35.5202
lfingers 7.12502
lthumb -4.50415 -5.58809
rfemur -2.75706 24.693 26.1793
rtibia 1.50039
rfoot -14.6556 -28.2957
rtoes 5.4354
lfemur 8.64951 -53.2345 -14.6471
ltibia -5.14134
lfoot -37.9121 58.1275
ltoes 19.7901
1761
root 0.58807 17.5028 9.46475 10.5389 0.90785 -9.02955
lowerback 1.75654 1.46824 7.61562
upperback -6.73657 2.54822 1.69973
thorax -7.85401 0.837375 -2.67177
lowerneck -14.0394 -7.4075 -5.71058
upperneck 24.252 -11.2895 8.16826
head 10.9541 -4.76603 2.30636
rclavicle 5.62809e-015 -2.96189e-014
rhumerus -46.231 30.3197 -90.7078
rradius 106.137
rwrist 16.8061
rhand -14.7546 -21.846
rfingers 7.12502
rthumb 11.4014 -51.516
lclavicle 5.62809e-015 -2.96189e-014
lhumerus -51.7868 -4.17525 93.0032
lradius 76.8854
lwrist 4.22885
lhand -30.6104 -35.3174
lfingers 7.12502
lthumb -3.90691 -5.37346
rfemur -3.44069 24.8506 25.8977
rtibia 1.57733
rfoot -14.9766 -29.1028
rtoes 5.94325
lfemur 6.32304 -52.1509 -12.6844
ltibia -4.99587
lfoot -34.491 57.1541
ltoes 17.9101
